<?xml version="1.0" encoding="iso-8859-1"?>
<!-- Generator: Adobe Illustrator 19.0.0, SVG Export Plug-In . SVG Version: 6.00 Build 0)  -->
<svg version="1.1" id="Capa_1" xmlns="http://www.w3.org/2000/svg" xmlns:xlink="http://www.w3.org/1999/xlink" x="0px" y="0px"
	 viewBox="0 0 436.9 436.9" style="enable-background:new 0 0 436.9 436.9;" xml:space="preserve">
<circle style="fill:#EA8953;" cx="218.45" cy="218.45" r="218.45"/>
<path style="opacity:0.1;enable-background:new    ;" d="M262.814,96.981h-20.719l-6.52-6.52h-38.912v6.52h-27.375v6.519l4.54,4.54
	v44.988h-20.992v9.114l9.626,9.625v38.025h-9.626v8.226l3.789,3.789v108.612h-3.789v8.227h-11.128v7.816l90.008,90.008
	c98.423-5.9,179.239-76.945,199.973-170.612L262.814,96.981z"/>
<rect x="156.64" y="216.2" style="fill:#1C75A1;" width="58.27" height="114.22"/>
<rect x="167.59" y="307.85" style="fill:#D5D6DB;" width="35.915" height="22.583"/>
<rect x="183.43" y="306.62" style="fill:#1C75A1;" width="4.27" height="23.815"/>
<rect x="199.31" y="222.99" style="fill:#D5D6DB;" width="6.984" height="12.718"/>
<polygon style="fill:#EBF0F3;" points="199.3,235.701 199.3,222.985 206.284,222.985 "/>
<rect x="199.31" y="239.17" style="fill:#D5D6DB;" width="6.984" height="12.718"/>
<polygon style="fill:#EBF0F3;" points="199.3,251.902 199.3,239.185 206.284,239.185 "/>
<rect x="199.31" y="255.39" style="fill:#D5D6DB;" width="6.984" height="12.718"/>
<polygon style="fill:#EBF0F3;" points="199.3,268.103 199.3,255.386 206.284,255.386 "/>
<rect x="199.31" y="271.6" style="fill:#D5D6DB;" width="6.984" height="12.718"/>
<polygon style="fill:#EBF0F3;" points="199.3,284.303 199.3,271.587 206.284,271.587 "/>
<rect x="199.31" y="287.78" style="fill:#D5D6DB;" width="6.984" height="12.718"/>
<polygon style="fill:#EBF0F3;" points="199.3,300.504 199.3,287.787 206.284,287.787 "/>
<rect x="187.94" y="222.99" style="fill:#D5D6DB;" width="6.984" height="12.718"/>
<polygon style="fill:#EBF0F3;" points="187.952,235.701 187.952,222.985 194.937,222.985 "/>
<rect x="187.94" y="239.17" style="fill:#D5D6DB;" width="6.984" height="12.718"/>
<polygon style="fill:#EBF0F3;" points="187.952,251.902 187.952,239.185 194.937,239.185 "/>
<rect x="187.94" y="255.39" style="fill:#D5D6DB;" width="6.984" height="12.718"/>
<polygon style="fill:#EBF0F3;" points="187.952,268.103 187.952,255.386 194.937,255.386 "/>
<rect x="187.94" y="271.6" style="fill:#D5D6DB;" width="6.984" height="12.718"/>
<polygon style="fill:#EBF0F3;" points="187.952,284.303 187.952,271.587 194.937,271.587 "/>
<rect x="187.94" y="287.78" style="fill:#D5D6DB;" width="6.984" height="12.718"/>
<polygon style="fill:#EBF0F3;" points="187.952,300.504 187.952,287.787 194.937,287.787 "/>
<rect x="176.61" y="222.99" style="fill:#D5D6DB;" width="6.984" height="12.718"/>
<polygon style="fill:#EBF0F3;" points="176.605,235.701 176.605,222.985 183.589,222.985 "/>
<rect x="176.61" y="239.17" style="fill:#D5D6DB;" width="6.984" height="12.718"/>
<polygon style="fill:#EBF0F3;" points="176.605,251.902 176.605,239.185 183.589,239.185 "/>
<rect x="176.61" y="255.39" style="fill:#D5D6DB;" width="6.984" height="12.718"/>
<polygon style="fill:#EBF0F3;" points="176.605,268.103 176.605,255.386 183.589,255.386 "/>
<rect x="176.61" y="271.6" style="fill:#D5D6DB;" width="6.984" height="12.718"/>
<polygon style="fill:#EBF0F3;" points="176.605,284.303 176.605,271.587 183.589,271.587 "/>
<rect x="176.61" y="287.78" style="fill:#D5D6DB;" width="6.984" height="12.718"/>
<polygon style="fill:#EBF0F3;" points="176.605,300.504 176.605,287.787 183.589,287.787 "/>
<rect x="165.27" y="222.99" style="fill:#D5D6DB;" width="6.984" height="12.718"/>
<polygon style="fill:#EBF0F3;" points="165.257,235.701 165.257,222.985 172.241,222.985 "/>
<rect x="165.27" y="239.17" style="fill:#D5D6DB;" width="6.984" height="12.718"/>
<polygon style="fill:#EBF0F3;" points="165.257,251.902 165.257,239.185 172.241,239.185 "/>
<rect x="165.27" y="255.39" style="fill:#D5D6DB;" width="6.984" height="12.718"/>
<polygon style="fill:#EBF0F3;" points="165.257,268.103 165.257,255.386 172.241,255.386 "/>
<rect x="165.27" y="271.6" style="fill:#D5D6DB;" width="6.984" height="12.718"/>
<polygon style="fill:#EBF0F3;" points="165.257,284.303 165.257,271.587 172.241,271.587 "/>
<rect x="165.27" y="287.78" style="fill:#D5D6DB;" width="6.984" height="12.718"/>
<polygon style="fill:#EBF0F3;" points="165.257,300.504 165.257,287.787 172.241,287.787 "/>
<rect x="220.19" y="216.2" style="fill:#1C75A1;" width="58.27" height="114.22"/>
<rect x="231.19" y="307.85" style="fill:#D5D6DB;" width="35.915" height="22.583"/>
<rect x="246.99" y="306.62" style="fill:#1C75A1;" width="4.27" height="23.815"/>
<rect x="262.86" y="222.99" style="fill:#D5D6DB;" width="6.984" height="12.718"/>
<polygon style="fill:#EBF0F3;" points="262.873,235.701 262.873,222.985 269.857,222.985 "/>
<rect x="262.86" y="239.17" style="fill:#D5D6DB;" width="6.984" height="12.718"/>
<polygon style="fill:#EBF0F3;" points="262.873,251.902 262.873,239.185 269.857,239.185 "/>
<rect x="262.86" y="255.39" style="fill:#D5D6DB;" width="6.984" height="12.718"/>
<polygon style="fill:#EBF0F3;" points="262.873,268.103 262.873,255.386 269.857,255.386 "/>
<rect x="262.86" y="271.6" style="fill:#D5D6DB;" width="6.984" height="12.718"/>
<polygon style="fill:#EBF0F3;" points="262.873,284.303 262.873,271.587 269.857,271.587 "/>
<rect x="262.86" y="287.78" style="fill:#D5D6DB;" width="6.984" height="12.718"/>
<polygon style="fill:#EBF0F3;" points="262.873,300.504 262.873,287.787 269.857,287.787 "/>
<rect x="251.53" y="222.99" style="fill:#D5D6DB;" width="6.984" height="12.718"/>
<polygon style="fill:#EBF0F3;" points="251.525,235.701 251.525,222.985 258.509,222.985 "/>
<rect x="251.53" y="239.17" style="fill:#D5D6DB;" width="6.984" height="12.718"/>
<polygon style="fill:#EBF0F3;" points="251.525,251.902 251.525,239.185 258.509,239.185 "/>
<rect x="251.53" y="255.39" style="fill:#D5D6DB;" width="6.984" height="12.718"/>
<polygon style="fill:#EBF0F3;" points="251.525,268.103 251.525,255.386 258.509,255.386 "/>
<rect x="251.53" y="271.6" style="fill:#D5D6DB;" width="6.984" height="12.718"/>
<polygon style="fill:#EBF0F3;" points="251.525,284.303 251.525,271.587 258.509,271.587 "/>
<rect x="251.53" y="287.78" style="fill:#D5D6DB;" width="6.984" height="12.718"/>
<polygon style="fill:#EBF0F3;" points="251.525,300.504 251.525,287.787 258.509,287.787 "/>
<rect x="240.16" y="222.99" style="fill:#D5D6DB;" width="6.984" height="12.718"/>
<polygon style="fill:#EBF0F3;" points="240.177,235.701 240.177,222.985 247.161,222.985 "/>
<rect x="240.16" y="239.17" style="fill:#D5D6DB;" width="6.984" height="12.718"/>
<polygon style="fill:#EBF0F3;" points="240.177,251.902 240.177,239.185 247.161,239.185 "/>
<rect x="240.16" y="255.39" style="fill:#D5D6DB;" width="6.984" height="12.718"/>
<polygon style="fill:#EBF0F3;" points="240.177,268.103 240.177,255.386 247.161,255.386 "/>
<rect x="240.16" y="271.6" style="fill:#D5D6DB;" width="6.984" height="12.718"/>
<polygon style="fill:#EBF0F3;" points="240.177,284.303 240.177,271.587 247.161,271.587 "/>
<rect x="240.16" y="287.78" style="fill:#D5D6DB;" width="6.984" height="12.718"/>
<polygon style="fill:#EBF0F3;" points="240.177,300.504 240.177,287.787 247.161,287.787 "/>
<rect x="228.83" y="222.99" style="fill:#D5D6DB;" width="6.984" height="12.718"/>
<polygon style="fill:#EBF0F3;" points="228.829,235.701 228.829,222.985 235.813,222.985 "/>
<rect x="228.83" y="239.17" style="fill:#D5D6DB;" width="6.984" height="12.718"/>
<polygon style="fill:#EBF0F3;" points="228.829,251.902 228.829,239.185 235.813,239.185 "/>
<rect x="228.83" y="255.39" style="fill:#D5D6DB;" width="6.984" height="12.718"/>
<polygon style="fill:#EBF0F3;" points="228.829,268.103 228.829,255.386 235.813,255.386 "/>
<rect x="228.83" y="271.6" style="fill:#D5D6DB;" width="6.984" height="12.718"/>
<polygon style="fill:#EBF0F3;" points="228.829,284.303 228.829,271.587 235.813,271.587 "/>
<rect x="228.83" y="287.78" style="fill:#D5D6DB;" width="6.984" height="12.718"/>
<polygon style="fill:#EBF0F3;" points="228.829,300.504 228.829,287.787 235.813,287.787 "/>
<rect x="162.47" y="161.42" style="fill:#2D93BA;" width="109.91" height="50.551"/>
<rect x="152.82" y="153.01" style="fill:#E56353;" width="128.86" height="9.127"/>
<g>
	<rect x="152.82" y="209.82" style="fill:#FCD462;" width="128.86" height="8.223"/>
	<rect x="152.82" y="330.44" style="fill:#FCD462;" width="130.08" height="8.223"/>
</g>
<rect x="214.9" y="162.03" style="fill:#2D93BA;" width="5.304" height="47.821"/>
<rect x="214.9" y="218.01" style="fill:#EBF0F3;" width="5.304" height="112.41"/>
<rect x="249.72" y="168.89" style="fill:#D5D6DB;" width="16.831" height="14.589"/>
<polygon style="fill:#EBF0F3;" points="249.71,183.484 249.71,168.896 266.541,168.896 "/>
<rect x="249.72" y="189.41" style="fill:#D5D6DB;" width="16.831" height="14.589"/>
<polygon style="fill:#EBF0F3;" points="249.71,203.987 249.71,189.398 266.541,189.398 "/>
<rect x="192.61" y="168.89" style="fill:#D5D6DB;" width="48.13" height="7.294"/>
<polygon style="fill:#EBF0F3;" points="192.605,176.19 192.605,168.896 240.736,168.896 "/>
<rect x="193.19" y="182.27" style="fill:#D5D6DB;" width="48.13" height="7.294"/>
<polygon style="fill:#EBF0F3;" points="193.193,189.567 193.193,182.273 241.325,182.273 "/>
<rect x="193.78" y="195.65" style="fill:#D5D6DB;" width="48.13" height="7.294"/>
<polygon style="fill:#EBF0F3;" points="193.781,202.944 193.781,195.65 241.913,195.65 "/>
<rect x="168.31" y="168.89" style="fill:#D5D6DB;" width="16.831" height="14.589"/>
<polygon style="fill:#EBF0F3;" points="168.319,183.484 168.319,168.896 185.15,168.896 "/>
<rect x="168.31" y="189.88" style="fill:#D5D6DB;" width="16.831" height="14.589"/>
<polygon style="fill:#EBF0F3;" points="168.319,204.462 168.319,189.873 185.15,189.873 "/>
<rect x="173.83" y="103.53" style="fill:#27A2DB;" width="84.58" height="49.5"/>
<rect x="231.22" y="110.8" style="fill:#D5D6DB;" width="16.831" height="14.589"/>
<polygon style="fill:#EBF0F3;" points="231.227,125.382 231.227,110.793 248.057,110.793 "/>
<rect x="207.71" y="110.8" style="fill:#D5D6DB;" width="16.831" height="14.589"/>
<polygon style="fill:#EBF0F3;" points="207.708,125.382 207.708,110.793 224.538,110.793 "/>
<rect x="184.19" y="110.8" style="fill:#D5D6DB;" width="16.831" height="14.589"/>
<polygon style="fill:#EBF0F3;" points="184.189,125.382 184.189,110.793 201.02,110.793 "/>
<rect x="231.22" y="131.14" style="fill:#D5D6DB;" width="16.831" height="14.589"/>
<polygon style="fill:#EBF0F3;" points="231.227,145.733 231.227,131.144 248.057,131.144 "/>
<rect x="207.71" y="131.14" style="fill:#D5D6DB;" width="16.831" height="14.589"/>
<polygon style="fill:#EBF0F3;" points="207.708,145.733 207.708,131.144 224.538,131.144 "/>
<rect x="184.19" y="131.14" style="fill:#D5D6DB;" width="16.831" height="14.589"/>
<polygon style="fill:#EBF0F3;" points="184.189,145.733 184.189,131.144 201.02,131.144 "/>
<rect x="169.3" y="96.97" style="fill:#FCD462;" width="93.5" height="6.53"/>
<g>
	<rect x="196.68" y="90.45" style="fill:#E56353;" width="38.926" height="6.53"/>
	<rect x="141.72" y="338.67" style="fill:#E56353;" width="153.47" height="7.799"/>
</g>
<g>
</g>
<g>
</g>
<g>
</g>
<g>
</g>
<g>
</g>
<g>
</g>
<g>
</g>
<g>
</g>
<g>
</g>
<g>
</g>
<g>
</g>
<g>
</g>
<g>
</g>
<g>
</g>
<g>
</g>
</svg>
